<svg id="Layer_1" data-name="Layer 1" xmlns="http://www.w3.org/2000/svg" xmlns:xlink="http://www.w3.org/1999/xlink" viewBox="0 0 715.2 135.15"><defs><style>.cls-1{fill:none;}.cls-2{clip-path:url(#clip-path);}.cls-3{fill:#fff;}.cls-4{clip-path:url(#clip-path-2);}.cls-5{fill:url(#linear-gradient);}.cls-6{clip-path:url(#clip-path-3);}.cls-7{fill:url(#linear-gradient-2);}.cls-8{clip-path:url(#clip-path-4);}.cls-9{fill:url(#linear-gradient-3);}.cls-10{clip-path:url(#clip-path-5);}.cls-11{fill:url(#linear-gradient-4);}.cls-12{clip-path:url(#clip-path-6);}.cls-13{fill:url(#linear-gradient-5);}.cls-14{clip-path:url(#clip-path-7);}.cls-15{fill:url(#linear-gradient-6);}.cls-16{clip-path:url(#clip-path-8);}.cls-17{fill:url(#linear-gradient-7);}.cls-18{clip-path:url(#clip-path-9);}.cls-19{fill:url(#linear-gradient-8);}.cls-20{clip-path:url(#clip-path-10);}.cls-21{fill:url(#linear-gradient-9);}.cls-22{clip-path:url(#clip-path-11);}.cls-23{fill:url(#linear-gradient-10);}.cls-24{clip-path:url(#clip-path-12);}.cls-25{fill:url(#linear-gradient-11);}.cls-26{clip-path:url(#clip-path-13);}.cls-27{fill:url(#linear-gradient-12);}</style><clipPath id="clip-path" transform="translate(0 11.53)"><rect class="cls-1" width="715.2" height="123.63"/></clipPath><clipPath id="clip-path-2" transform="translate(0 11.53)"><polygon class="cls-1" points="56.15 0 56.15 27.74 80.19 41.56 80.19 13.87 56.15 0"/></clipPath><linearGradient id="linear-gradient" y1="123.62" x2="1" y2="123.62" gradientTransform="translate(90.64 20439.76) rotate(180) scale(165.17)" gradientUnits="userSpaceOnUse"><stop offset="0" stop-color="#2e0d25"/><stop offset="0.11" stop-color="#330d25"/><stop offset="0.25" stop-color="#420c26"/><stop offset="0.4" stop-color="#5a0c27"/><stop offset="0.56" stop-color="#7c0b28"/><stop offset="0.73" stop-color="#a8092a"/><stop offset="0.9" stop-color="#dd082c"/><stop offset="1" stop-color="#ff072d"/></linearGradient><clipPath id="clip-path-3" transform="translate(0 11.53)"><polygon class="cls-1" points="30.09 45.08 51.12 57.17 54.1 58.9 64.68 52.81 78.15 45.08 54.1 31.25 30.09 45.08"/></clipPath><linearGradient id="linear-gradient-2" y1="123.62" y2="123.62" gradientTransform="translate(102.38 20464.06) rotate(180) scale(165.17)" xlink:href="#linear-gradient"/><clipPath id="clip-path-4" transform="translate(0 11.53)"><polygon class="cls-1" points="28.09 76.33 52.1 90.11 52.1 62.41 48.14 60.15 28.09 48.59 28.09 76.33"/></clipPath><linearGradient id="linear-gradient-3" y1="123.63" y2="123.63" gradientTransform="matrix(-165.17, 0, 0, -165.17, 114.1, 20488.33)" xlink:href="#linear-gradient"/><clipPath id="clip-path-5" transform="translate(0 11.53)"><polygon class="cls-1" points="84.24 43.88 108.2 57.7 108.2 30.05 84.24 16.23 84.24 43.88"/></clipPath><linearGradient id="linear-gradient-4" y1="123.63" y2="123.63" gradientTransform="matrix(-165.17, 0, 0, -165.17, 105.88, 20455.95)" xlink:href="#linear-gradient"/><clipPath id="clip-path-6" transform="translate(0 11.53)"><polygon class="cls-1" points="0 62.41 0 90.11 24 76.33 24 48.59 0 62.41"/></clipPath><linearGradient id="linear-gradient-5" y1="123.62" x2="1" y2="123.62" gradientTransform="translate(0 -2886.73) scale(24)" gradientUnits="userSpaceOnUse"><stop offset="0" stop-color="#ff072d"/><stop offset="1" stop-color="#c9072d"/></linearGradient><clipPath id="clip-path-7" transform="translate(0 11.53)"><polygon class="cls-1" points="52.1 0 28.09 13.87 28.09 41.56 52.1 27.74 52.1 0"/></clipPath><linearGradient id="linear-gradient-6" x1="0" y1="123.63" x2="1" y2="123.63" gradientTransform="translate(28.09 -2935.3) scale(24)" xlink:href="#linear-gradient-5"/><clipPath id="clip-path-8" transform="translate(0 11.53)"><polygon class="cls-1" points="0 30.05 0 57.74 24 43.88 24 16.18 0 30.05"/></clipPath><linearGradient id="linear-gradient-7" x1="0" y1="123.63" x2="1" y2="123.63" gradientTransform="translate(0 -2919.12) scale(24)" xlink:href="#linear-gradient-5"/><clipPath id="clip-path-9" transform="translate(0 11.53)"><polygon class="cls-1" points="66.77 56.28 56.15 62.41 56.15 90.11 80.19 76.33 80.19 48.59 66.77 56.28"/></clipPath><linearGradient id="linear-gradient-8" x1="0" y1="123.62" x2="1" y2="123.62" gradientTransform="translate(56.14 -2892.23) scale(24.05)" xlink:href="#linear-gradient-5"/><clipPath id="clip-path-10" transform="translate(0 11.53)"><polygon class="cls-1" points="84.24 76.33 108.2 90.11 108.2 62.41 84.24 48.59 84.24 76.33"/></clipPath><linearGradient id="linear-gradient-9" x1="0" y1="123.62" x2="1" y2="123.62" gradientTransform="translate(84.24 -2881.24) scale(23.96)" xlink:href="#linear-gradient-5"/><clipPath id="clip-path-11" transform="translate(0 11.53)"><polygon class="cls-1" points="30.09 109.8 54.1 123.63 78.15 109.8 54.1 95.97 30.09 109.8"/></clipPath><linearGradient id="linear-gradient-10" x1="0" y1="123.63" x2="1" y2="123.63" gradientTransform="translate(30.09 -5819.38) scale(48.05)" xlink:href="#linear-gradient-5"/><clipPath id="clip-path-12" transform="translate(0 11.53)"><polygon class="cls-1" points="58.19 93.62 82.19 107.44 106.16 93.62 82.19 79.84 58.19 93.62"/></clipPath><linearGradient id="linear-gradient-11" x1="0" y1="123.62" x2="1" y2="123.62" gradientTransform="translate(58.19 -5824.54) scale(47.97)" xlink:href="#linear-gradient-5"/><clipPath id="clip-path-13" transform="translate(0 11.53)"><polygon class="cls-1" points="2.04 93.62 26.05 107.44 50.05 93.62 26.05 79.84 2.04 93.62"/></clipPath><linearGradient id="linear-gradient-12" x1="0" y1="123.62" x2="1" y2="123.62" gradientTransform="translate(2.04 -5830.04) scale(48.01)" xlink:href="#linear-gradient-5"/></defs><title>Objet dynamique vectoriel1</title><g class="cls-2"><path class="cls-3" d="M200.85,56.24v29.4c0,5.7-3.7,8.8-11.2,9.3H134q-8.55,0-9.3-9.3v-47c0-4.7,4-7.2,12.1-7.6h64v13.6h-60.6v37h45V68.14h-23.3V56.24Z" transform="translate(0 11.53)"/><path class="cls-3" d="M250.6,69.84H233.9v25.1H217.3V31h67.9c4.2,0,6.5,2.9,6.81,8.6v23.3c0,4.2-2.31,6.5-6.9,6.8h-11.8l25.5,25.11H276.2l-25.6-25m-17-15.3h40.2c1.6,0,2.4-1.3,2.4-3.8V48c0-2.5-.8-3.8-2.4-3.8H233.6Z" transform="translate(0 11.53)"/><path class="cls-3" d="M359.48,31.09h7.1m0,0h31.5c11.7,0,20,5.3,24.6,15.9a34.19,34.19,0,0,1,2,5.68,41.08,41.08,0,0,1,0,20.28,34,34,0,0,1-2,5.84c-4.69,10.8-12.89,16.1-24.6,16.1h-54.2V31.09h15.7m0,13.2v37.6h34.8c6.9,0,11.8-3.1,14.61-9.4a31.72,31.72,0,0,0,2.1-9.5,31.74,31.74,0,0,0-2.1-9.4c-2.81-6.2-7.61-9.4-14.5-9.4h-34.9" transform="translate(0 11.53)"/><polygon class="cls-3" points="458.1 64.22 458 106.42 442.1 106.42 442.1 42.62 458 42.62 508.1 83.62 508.1 42.62 524.3 42.62 524.3 106.42 508.1 106.42 458.1 64.22"/><path class="cls-3" d="M554.65,31h-13.9v63.9h14V31.54a4.33,4.33,0,0,1-.1-.5" transform="translate(0 11.53)"/><rect class="cls-3" x="540.75" y="92.37" width="67.6" height="14"/><rect class="cls-3" x="540.75" y="67.07" width="49.9" height="13.9"/><rect class="cls-3" x="540.75" y="42.57" width="67.8" height="13.1"/><line class="cls-3" x1="553.35" y1="55.67" x2="553.35" y2="67.07"/><path class="cls-3" d="M687,66.94l28.2,28H688.8l-15.1-14.8m0-33.9,15.1-15.1,26.4-.1L687,59.14M683.3,63l-32,31.9H625L657,63l-32-31.9,26.4.1,18.7,18.7" transform="translate(0 11.53)"/><polygon class="cls-3" points="308.43 42.52 308.43 51.42 308.43 53.32 308.43 106.52 327.43 106.52 327.43 53.32 327.43 51.42 327.43 42.52 308.43 42.52"/></g><g class="cls-4"><rect class="cls-5" x="46.11" y="-3.07" width="44.13" height="47.7" transform="matrix(0.8, -0.6, 0.6, 0.8, 1.1, 56.41)"/></g><g class="cls-6"><rect class="cls-7" x="26.6" y="19.63" width="55.05" height="50.9" transform="translate(-16.21 52.83) rotate(-36.72)"/></g><g class="cls-8"><rect class="cls-9" x="18.06" y="45.53" width="44.07" height="47.63" transform="translate(-33.51 49.26) rotate(-36.72)"/></g><g class="cls-10"><rect class="cls-11" x="74.22" y="13.18" width="44.01" height="47.57" transform="translate(-3.01 76.39) rotate(-36.72)"/></g><g class="cls-12"><rect class="cls-13" y="60.11" width="24" height="41.52"/></g><g class="cls-14"><rect class="cls-15" x="28.09" y="11.53" width="24" height="41.56"/></g><g class="cls-16"><rect class="cls-17" y="27.71" width="24" height="41.56"/></g><g class="cls-18"><rect class="cls-19" x="56.15" y="60.11" width="24.05" height="41.52"/></g><g class="cls-20"><rect class="cls-21" x="84.24" y="60.11" width="23.96" height="41.52"/></g><g class="cls-22"><rect class="cls-23" x="30.09" y="107.5" width="48.05" height="27.65"/></g><g class="cls-24"><rect class="cls-25" x="58.19" y="91.36" width="47.97" height="27.61"/></g><g class="cls-26"><rect class="cls-27" x="2.05" y="91.36" width="48.01" height="27.61"/></g></svg>